<svg xmlns="http://www.w3.org/2000/svg" version="1.1" xmlns:xlink="http://www.w3.org/1999/xlink" width="512" height="512"><svg width="512" height="512" viewBox="0 0 512 512" fill="none" xmlns="http://www.w3.org/2000/svg">
<g clip-path="url(#clip0_42_2)">
<rect width="512" height="512" fill="#983351"></rect>
<path d="M168.002 301.873C172.499 313.174 176.83 324.113 181.07 334.823C178.847 337.035 176.679 336.604 174.698 336.613C164.221 336.66 153.74 336.453 143.268 336.678C139.289 336.763 137.408 335.193 136.224 331.566C134.04 324.881 131.342 318.365 129.149 311.683C128.016 308.231 126.221 306.82 122.454 306.851C103.39 307.009 84.3232 306.977 65.2588 306.842C61.8153 306.818 60.0416 307.828 58.9728 311.3C56.8553 318.18 54.1158 324.867 51.7533 331.675C50.5395 335.173 48.5883 336.843 44.5705 336.724C34.7886 336.436 24.9926 336.644 15.2024 336.606C7.55062 336.577 7.23953 336.135 10.0233 329.173C19.3283 305.904 28.6473 282.64 37.9853 259.385C48.474 233.263 59.0934 207.193 69.3917 180.996C71.1277 176.58 73.4025 175.042 78.1131 175.191C89.0945 175.54 100.1 175.494 111.085 175.191C115.252 175.076 117.173 176.652 118.658 180.351C133.23 216.66 147.941 252.913 162.632 289.174C164.308 293.311 166.099 297.401 168.002 301.873ZM86.3973 273.573C95.3714 273.573 104.346 273.573 114.223 273.573C107.455 255.459 102.122 238.146 94.7185 221.635C94.1334 221.671 93.5483 221.706 92.9631 221.742C86.6743 238.638 80.3855 255.534 74.0201 272.636C78.2433 274.15 81.8579 273.342 86.3973 273.573Z" fill="white"></path>
<path d="M164.966 175.757C178.435 175.741 178.526 175.706 183.054 187.705C194.38 217.719 205.611 247.769 216.898 277.797C217.607 279.684 218.094 281.726 219.751 283.196C222.247 282.344 222.356 280.005 223.017 278.238C234.969 246.249 246.932 214.263 258.63 182.181C260.356 177.447 262.546 175.379 267.826 175.611C277.769 176.048 287.745 175.71 297.707 175.737C299.545 175.741 301.469 175.387 303.629 176.676C302.371 182.543 299.697 187.927 297.518 193.427C279.444 239.063 261.161 284.616 243.177 330.287C241.171 335.381 238.63 337.536 233.02 337.246C223.94 336.775 214.814 336.915 205.719 337.179C201.442 337.304 199.222 335.75 197.65 331.782C187.477 306.095 177.084 280.494 166.795 254.853C157.401 231.441 148.03 208.019 138.698 184.582C137.704 182.084 136.23 179.684 136.387 175.757C145.776 175.757 155.115 175.757 164.966 175.757Z" fill="white"></path>
<path d="M309.739 214.031C309.726 202.712 309.856 191.885 309.629 181.066C309.544 177.036 310.882 175.62 314.938 175.67C328.165 175.831 341.397 175.802 354.622 175.595C357.75 175.546 359.215 176.767 360.452 179.412C367.58 194.654 374.799 209.854 382.085 225.021C384.892 230.867 392.543 233.393 398.293 230.241C403.176 227.563 407.968 228.679 412.789 229.892C421.769 232.15 430.707 234.575 439.663 236.927C443.592 237.959 447.434 237.664 451.331 236.52C462.602 233.212 473.086 228.085 483.545 222.879C485.196 222.058 486.656 220.681 488.791 220.931C490.409 222.22 489.819 224.073 489.826 225.673C489.889 241.479 489.777 257.286 489.958 273.09C490.001 276.869 488.585 278.557 485.047 279.628C477.98 281.767 471.116 284.466 464.952 288.73C462.738 290.262 461.808 291.891 461.869 294.661C462.031 301.985 459.345 305.533 452.224 306.994C449.38 307.577 448.803 308.819 448.424 311.36C447.572 317.059 443.66 320.48 437.841 320.634C434.999 320.71 432.935 321.186 431.675 324.041C430.838 325.935 429.148 327.923 427.201 328.041C421.099 328.411 415.911 330.631 411.233 334.382C410.857 334.684 410.238 334.916 409.783 334.848C401.931 333.672 393.898 336.724 386.613 335.523C380.995 334.597 374.508 332.013 369.384 329.093C365.493 326.875 362.307 324.278 357.535 323.151C352.268 321.906 351.988 316.437 352.407 311.711C351.035 310.482 349.642 311.284 348.334 311.311C342.844 311.42 339.834 308.991 339.696 303.476C339.615 300.205 338.207 298.405 335.942 296.211C329.05 289.535 321.499 284.118 312.443 280.805C310 279.911 310.097 279.644 310.251 275.36C316.952 276.754 322.874 279.567 328.351 283.269C331.318 285.275 334.002 287.749 336.608 290.228C340.046 293.5 343.643 296.191 348.677 296.289C351.609 296.346 353.986 297.918 355.719 300.114C358.105 303.137 360.241 302.471 362.545 300.195C365.137 297.634 368.008 294.369 371.591 294.809C379.005 295.72 385.348 300.183 392.352 302.616C392.603 302.703 392.915 303.205 392.874 303.46C391.509 311.79 399.691 317.256 399.439 325.105C399.319 328.853 401.652 329.36 404.088 330.028C407.04 330.839 410.008 330.801 412.023 328.022C413.697 325.713 411.635 324.554 410.111 323.566C406.933 321.504 403.832 319.362 401.126 316.7C400.807 316.386 400.719 315.839 400.425 315.177C402.798 313.891 404.484 315.504 406.092 316.386C409.552 318.282 412.85 320.472 416.214 322.544C418.478 323.939 420.925 324.732 423.577 324.249C426.107 323.787 428.108 322.277 428.846 319.833C429.553 317.493 427.271 316.655 425.828 315.576C421.7 312.488 417.506 309.484 413.979 305.686C413.564 305.239 413.426 304.534 413.09 303.795C415.655 302.185 417.179 304.094 418.71 305.088C423.459 308.17 428.023 311.54 432.789 314.595C436.091 316.711 439.359 316.292 442.14 313.434C445.283 310.205 445.229 307.071 441.727 304.22C436.934 300.32 431.754 296.885 427.479 292.373C426.13 290.949 424.162 289.774 424.7 287.253C426.384 286.114 427.238 287.619 428.214 288.365C434.089 292.854 440.193 296.993 446.495 300.862C450.15 303.106 453.443 303.033 456.024 299.551C458.661 295.991 457.482 292.758 454.309 290.077C439.743 277.77 424.933 265.771 408.846 255.475C403.035 251.755 394.115 254.554 391.255 260.793C387.861 268.195 382.832 273.35 374.152 273.489C369.188 273.568 367.664 271.39 369.131 266.594C369.833 264.298 370.929 262.111 371.5 259.79C373.871 250.154 376.123 240.495 388.349 237.083C383.701 233.093 379.722 233.519 375.656 235.111C371.027 236.923 366.592 239.203 361.732 240.459C354.6 242.302 347.758 241.437 341.117 238.544C331.334 234.283 322.179 228.841 312.932 223.555C309.003 221.308 309.881 217.853 309.739 214.031Z" fill="white"></path>
<path d="M451.415 175.68C462.743 175.678 473.569 175.791 484.389 175.612C488.21 175.549 490.025 176.486 489.919 180.754C489.676 190.54 489.764 200.338 489.904 210.129C489.947 213.093 488.911 214.932 486.262 216.228C473.949 222.249 461.96 228.997 448.529 232.429C446.303 232.998 444.112 233.03 441.895 232.738C434.879 231.815 428.251 229.342 421.457 227.532C418.909 226.853 418.238 225.47 419.449 222.941C426.498 208.23 433.473 193.482 440.43 178.727C442.805 173.689 447.342 176.431 451.415 175.68Z" fill="white"></path>
<path d="M489.85 315.25C489.844 321.433 489.744 327.103 489.869 332.768C489.937 335.854 488.649 337.123 485.617 337.108C475.14 337.056 464.663 337.054 454.186 337.11C451.022 337.127 449.981 335.515 450.041 332.606C450.127 328.485 449.865 324.348 450.146 320.244C450.473 315.465 451.848 311.582 457.273 309.627C463.4 307.42 466.729 302.398 466.745 295.658C466.75 293.602 467.101 291.939 469.041 290.899C475.262 287.562 481.935 285.564 489.85 283.346C489.85 294.344 489.85 304.539 489.85 315.25Z" fill="white"></path>
<path d="M330.969 297.556C333.783 299.293 335.079 301.285 335.212 304.443C335.468 310.573 338.421 313.993 344.423 314.993C347.489 315.504 348.797 316.922 349.602 319.702C350.926 324.273 350.411 328.893 350.442 333.505C350.457 335.802 349.183 337.014 346.925 337.014C335.604 337.016 324.283 336.996 312.962 336.926C310.95 336.913 309.792 335.782 309.791 333.683C309.787 317.606 309.789 301.529 309.789 284.82C318.427 287.161 324.879 291.672 330.969 297.556Z" fill="white"></path>
</g>
<defs>
<clipPath id="SvgjsClipPath1001">
<rect width="512" height="512" fill="white"></rect>
</clipPath>
</defs>
</svg><style>@media (prefers-color-scheme: light) { :root { filter: none; } }
@media (prefers-color-scheme: dark) { :root { filter: none; } }
</style></svg>